<svg id="Warstwa_1" data-name="Warstwa 1" xmlns="http://www.w3.org/2000/svg" xmlns:xlink="http://www.w3.org/1999/xlink" viewBox="0 0 137.62 133.35"><defs><style>.cls-1{fill:none;}.cls-2{clip-path:url(#clip-path);}.cls-3{fill:#009ddf;}.cls-4{fill:#adbcc4;}</style><clipPath id="clip-path" transform="translate(-4.07)"><path id="SVGID" class="cls-1" d="M33.28,89.29l-25,11.8L0,70.53,6.47,29.17a65.14,65.14,0,0,0,42.88-7.29c.26-.15-10.79,27.68-10.53,27.53Z"/></clipPath></defs><g class="cls-2"><path class="cls-3" d="M61.39,10.45,42.7,0l2.7,6.31-.85.35A65.89,65.89,0,0,0,9.18,92.86c.22.53.45,1,.68,1.57L23.8,88.18c-.18-.4-.36-.8-.53-1.21A50.62,50.62,0,0,1,50.44,20.74l1-.38,3,7.05Z" transform="translate(-4.07)"/></g><path class="cls-3" d="M90.17,73.12q-2.07-2.41-7.25-2.41H71V91a7.1,7.1,0,0,1-.42,3.18,1.81,1.81,0,0,1-1.6.62,1.85,1.85,0,0,1-1.54-.55A5.13,5.13,0,0,1,67,91.6V70.71H59V89.48q0,6.74,2.28,9.43c1.51,1.81,4.08,2.71,7.68,2.71s6.18-.91,7.72-2.72S79,94,79,89.48V77.08h2.54a2.57,2.57,0,0,1,2.15.82,4.45,4.45,0,0,1,.64,2.73,5.18,5.18,0,0,1-.63,3,2.87,2.87,0,0,1-2.32.79H80.18v6.13h2.64q5.25,0,7.34-2c1.38-1.34,2.08-3.66,2.08-7Q92.24,75.52,90.17,73.12Z" transform="translate(-4.07)"/><path class="cls-3" d="M90.17,34.4C88.79,32.8,86.37,32,82.92,32H71V52.26a7,7,0,0,1-.43,3.19,1.8,1.8,0,0,1-1.59.62,1.85,1.85,0,0,1-1.54-.56A5.1,5.1,0,0,1,67,52.88V32H59V50.76c0,4.49.75,7.63,2.27,9.44s4.09,2.7,7.69,2.7,6.18-.91,7.72-2.72,2.3-5,2.3-9.42V38.36h2.54a2.58,2.58,0,0,1,2.15.82,4.45,4.45,0,0,1,.64,2.73,5.18,5.18,0,0,1-.63,3,2.85,2.85,0,0,1-2.32.79H80.18v6.13h2.64c3.5,0,5.94-.66,7.33-2s2.09-3.66,2.09-6.95C92.24,38.84,91.55,36,90.17,34.4Z" transform="translate(-4.07)"/><path class="cls-4" d="M54.26,94.48a1.84,1.84,0,0,1-1.54-.56,5,5,0,0,1-.43-2.63V80.73a5,5,0,0,1,.42-2.59,1.85,1.85,0,0,1,1.55-.54h3.21V70.71H54.26q-5.46,0-7.77,2.72t-2.3,9.42v6.32q0,6.7,2.3,9.42t7.77,2.72h3.21V94.48Z" transform="translate(-4.07)"/><polygon class="cls-4" points="84.6 52.75 76.24 52.75 77.64 62.44 86.39 62.44 84.6 52.75"/><path class="cls-3" d="M111.1,97a50.64,50.64,0,0,1-72.65,10.09l4.43-5.76-18.21,2.43.1,21.09,4.36-5.66a65.89,65.89,0,0,0,94.36-13.28Z" transform="translate(-4.07)"/><path class="cls-3" d="M130.76,42A65.89,65.89,0,0,0,76.58,1.88l-1.51,15.2a50.61,50.61,0,0,1,45,57.83l-7.69-1,11.3,14.63,18-10.95-6.5-.82A65.71,65.71,0,0,0,130.76,42Z" transform="translate(-4.07)"/><path class="cls-4" d="M42.7,0l2.65,6.28-1,.43A50.42,50.42,0,0,1,10.88,8.82L6.8,23.54a65.59,65.59,0,0,0,43.56-2.78l.85-.37,3.22,7,7-17Z" transform="translate(-4.07)"/></svg>
